<?xml version="1.0" encoding="iso-8859-1"?>
<!-- Generator: Adobe Illustrator 16.0.0, SVG Export Plug-In . SVG Version: 6.00 Build 0)  -->
<!DOCTYPE svg PUBLIC "-//W3C//DTD SVG 1.1//EN" "http://www.w3.org/Graphics/SVG/1.1/DTD/svg11.dtd">
<svg version="1.1" id="Capa_1" xmlns="http://www.w3.org/2000/svg" xmlns:xlink="http://www.w3.org/1999/xlink" x="0px" y="0px"
	 viewBox="0 0 585.918 585.918" style="enable-background:new 0 0 585.918 585.918;"
	 xml:space="preserve">
<g>
	<path fill="#5e9c76" d="M357.396,535.325c0.776,0.052,1.542,0.114,2.329,0.114h177.39c20.75,0,37.627-16.883,37.627-37.627V86.597
		c0-20.743-16.877-37.628-37.627-37.628h-177.39c-0.781,0-1.553,0.07-2.329,0.118V0L11.176,46.206v492.311l346.22,47.401V535.325z
		 M357.396,361.212h57.407v21.511h-57.407V361.212z M357.396,358.524v-21.905h57.407v21.905H357.396z M357.396,333.931v-25.13
		h57.407v25.13H357.396z M357.396,306.113v-28.131h57.407v28.131H357.396z M357.396,275.688V248.89h57.407v26.798H357.396z
		 M357.396,246.591v-26.798h56.262h1.146v26.798H357.396z M359.726,70.476h177.39c8.893,0,16.125,7.236,16.125,16.126v411.22
		c0,8.888-7.232,16.127-16.125,16.127h-177.39c-0.792,0-1.563-0.121-2.329-0.243V385.018h59.706v-0.005h130.669V214.811h-0.117
		v-26.409h-65.848h-2.299h-65.85v0.005h-56.262V70.711C358.162,70.594,358.929,70.476,359.726,70.476z M545.083,219.788v162.532
		h-25.092V227.635h-17.228v154.684H488.41V243.525h-17.228v138.794h-12.642V259.223h-17.229v123.096h-24.21V277.977v-2.294v-26.798
		v-2.299v-26.798h62.4h2.304H545.083z M481.807,217.499v-26.796h63.55v24.108h-0.273v2.688H481.807z M479.508,217.499h-62.405
		h-1.144v-26.796h63.544v26.796H479.508z M98.663,321.536c7.126,0.127,15.097-1.407,19.812-3.327l3.614,19.927
		c-4.399,2.226-14.268,4.462-26.974,4.121c-35.293-0.94-53.019-24.741-53.019-55.626c0-36.998,24.302-58.227,55.329-59.043
		c12.263-0.329,21.67,2.097,25.933,4.328l-4.882,20.282c-4.869-2.092-11.588-3.969-19.969-3.827
		c-18.528,0.309-32.715,12.422-32.715,36.824C65.791,307.152,77.843,321.186,98.663,321.536z M164.763,344.119
		c-12.567-0.341-24.829-4.03-30.909-7.711l4.956-21.087c6.595,3.634,16.809,7.36,27.425,7.537
		c11.556,0.2,17.722-4.683,17.722-12.225c0-7.219-5.321-11.366-18.707-16.394c-18.228-6.667-29.961-17.096-29.961-33.555
		c0-19.32,15.455-34.518,41.512-35.2c12.683-0.339,22.111,2.179,28.903,5.134l-5.771,21.399c-4.569-2.176-12.633-5.315-23.625-5.134
		c-10.884,0.178-16.125,5.364-16.125,11.31c0,7.307,6.212,10.482,20.609,16.042c19.99,7.52,29.523,18.271,29.523,34.784
		C210.307,328.654,195.525,344.938,164.763,344.119z M288.053,345.61l-32.086-0.829l-37.772-118.466l29.103-0.748l14.551,50.26
		c4.128,14.224,7.895,27.957,10.772,42.97l0.548,0.01c3.063-14.436,6.874-28.725,11.058-42.528l15.772-52.055l30.277-0.769
		L288.053,345.61z"/>
</g>
<g>
</g>
<g>
</g>
<g>
</g>
<g>
</g>
<g>
</g>
<g>
</g>
<g>
</g>
<g>
</g>
<g>
</g>
<g>
</g>
<g>
</g>
<g>
</g>
<g>
</g>
<g>
</g>
<g>
</g>
</svg>
